<svg version="1.1" viewBox="0 0 167.611 167.6" x="0" y="0" xml:space="preserve" id="svg906" xmlns="http://www.w3.org/2000/svg"><style type="text/css" id="style868">.st0{fill:#ff4500}.st1{fill:#222}.st4,.st5{fill:none;stroke:#d8d8d8;stroke-miterlimit:10}.st4{display:inline;stroke-width:.4925}.st5{stroke-width:.5589}.st5,.st6{display:inline}</style><g id="Artwork" transform="translate(-56 -56)"><g id="g892"><g id="g884"><circle class="st0" cx="495.4" cy="113.7" r="10.6" id="circle870"/><path class="st1" d="M295.8 129.2c0-3-2.2-5.4-5-5.9-8.7-1.3-16.9 1.9-21.6 7.8v-.8c0-3.7-3-6-6-6-3.3 0-6 2.7-6 6v49c0 3.2 2.4 6 5.6 6.2 3.5.2 6.4-2.5 6.4-6v-25.3c0-11.2 8.4-20.4 20-19.1h1.2c3-.2 5.4-2.8 5.4-5.9z" id="path874"/><path class="st1" d="M501.4 135.6c0-3.3-2.7-6-6-6s-6 2.7-6 6v43.9c0 3.3 2.7 6 6 6s6-2.7 6-6v-43.9z" id="path876"/><path class="st1" d="M412.2 102.4c0-3.3-2.7-6-6-6s-6 2.7-6 6v26.7c-4.1-4.1-9.2-6.1-15.3-6.1-15.8 0-28.6 14.3-28.6 31.9 0 17.6 12.8 31.9 28.6 31.9 6.1 0 11.3-2.1 15.4-6.2.5 2.8 3 4.9 5.9 4.9 3.3 0 6-2.7 6-6v-77.1zM385 174.9c-9.2 0-16.6-8.9-16.6-20 0-11 7.4-20 16.6-20 9.2 0 16.6 8.9 16.6 20s-7.5 20-16.6 20z" id="path878"/><path class="st1" d="M474.8 102.4c0-3.3-2.7-6-6-6s-6 2.7-6 6v26.7c-4.1-4.1-9.2-6.1-15.3-6.1-15.8 0-28.6 14.3-28.6 31.9 0 17.6 12.8 31.9 28.6 31.9 6.1 0 11.3-2.1 15.4-6.2.5 2.8 3 4.9 5.9 4.9 3.3 0 6-2.7 6-6v-77.1zm-27.3 72.5c-9.2 0-16.6-8.9-16.6-20 0-11 7.4-20 16.6-20 9.2 0 16.6 8.9 16.6 20s-7.4 20-16.6 20z" id="path880"/><path class="st1" d="M531.8 179.6V135h5.3c2.8 0 5.3-2.1 5.5-5 .2-3.1-2.3-5.7-5.3-5.7h-5.5v-8.4c0-3.2-2.4-6-5.6-6.2-3.5-.2-6.4 2.5-6.4 6v8.7h-5c-2.8 0-5.3 2.1-5.5 5-.2 3.1 2.3 5.7 5.3 5.7h5.1v44.6c0 3.3 2.7 6 6 6 3.5-.2 6.1-2.8 6.1-6.1z" id="path882"/></g><g id="g890"><circle class="st0" cx="139.8" cy="139.8" r="83.8" id="circle886"/><path d="M195.7 139.8c0-6.8-5.5-12.2-12.2-12.2-3.3 0-6.3 1.3-8.5 3.4-8.4-6-19.9-9.9-32.7-10.4l5.6-26.2 18.2 3.9c.2 4.6 4 8.3 8.7 8.3 4.8 0 8.7-3.9 8.7-8.7 0-4.8-3.9-8.7-8.7-8.7-3.4 0-6.4 2-7.8 4.9l-20.3-4.3c-.6-.1-1.2 0-1.6.3-.5.3-.8.8-.9 1.4l-6.2 29.2c-13 .4-24.7 4.3-33.2 10.4-2.2-2.1-5.2-3.4-8.5-3.4-6.8 0-12.2 5.5-12.2 12.2 0 5 3 9.2 7.2 11.1-.2 1.2-.3 2.4-.3 3.7 0 18.8 21.9 34.1 48.9 34.1s48.9-15.2 48.9-34.1c0-1.2-.1-2.5-.3-3.7 4.2-1.9 7.2-6.2 7.2-11.2zm-83.8 8.7c0-4.8 3.9-8.7 8.7-8.7 4.8 0 8.7 3.9 8.7 8.7 0 4.8-3.9 8.7-8.7 8.7-4.8.1-8.7-3.9-8.7-8.7zm48.7 23.1c-6 6-17.4 6.4-20.7 6.4-3.4 0-14.8-.5-20.7-6.4-.9-.9-.9-2.3 0-3.2.9-.9 2.3-.9 3.2 0 3.8 3.8 11.8 5.1 17.5 5.1 5.7 0 13.8-1.3 17.5-5.1.9-.9 2.3-.9 3.2 0 .8.9.8 2.3 0 3.2zm-1.6-14.3c-4.8 0-8.7-3.9-8.7-8.7 0-4.8 3.9-8.7 8.7-8.7 4.8 0 8.7 3.9 8.7 8.7 0 4.7-3.9 8.7-8.7 8.7z" id="path888" style="fill:#fff"/></g></g></g></svg>